<?xml version="1.0" encoding="UTF-8"?>
<svg width="731.6" height="155.41" version="1.1" viewBox="0 0 1829 388.52" xmlns="http://www.w3.org/2000/svg">
 <path d="m469.26 351c28.624 0 51.287-9.1442 66.791-27.829v24.648h59.238v-294.99h-62.02v103.76c-15.902-17.494-37.77-25.842-64.009-25.842-60.432 0-106.95 42.938-106.95 110.13 0 67.188 46.514 110.13 106.95 110.13zm10.734-50.891c-31.01 0-54.865-22.264-54.865-59.238 0-36.973 23.855-59.238 54.865-59.238 30.613 0 54.468 22.264 54.468 59.238 0 36.973-23.855 59.238-54.468 59.238zm258.44 50.891c28.624 0 51.287-9.1442 66.791-27.829v24.648h59.238v-294.99h-62.02v103.76c-15.902-17.494-37.77-25.842-64.009-25.842-60.432 0-106.95 42.938-106.95 110.13 0 67.188 46.516 110.13 106.95 110.13zm10.734-50.891c-31.012 0-54.863-22.264-54.863-59.238 0-36.973 23.855-59.238 54.863-59.238 30.613 0 54.468 22.264 54.468 59.238 0 36.973-23.855 59.238-54.468 59.238zm166.59 47.71h62.02v-161.41h53.274v-47.708h-54.863v-9.1441c0-21.071 9.9392-31.012 28.228-31.012 9.5415 0 18.288 2.7831 25.047 7.5537l16.3-44.926c-11.529-7.9513-29.42-11.529-47.311-11.529-53.274 0-82.694 31.407-82.694 79.515zm221.05 3.1805c10.734 0 21.467-1.5904 32.204-5.1684l-2.7829-48.104c-3.5782 1.9877-10.734 3.9758-17.494 3.9758-17.094 0-26.635-9.9392-26.635-28.228v-220.66h-62.02v224.22c0 47.71 28.624 73.948 76.731 73.948zm143.92 0c28.624 0 51.287-9.1441 66.791-27.829v24.648h59.238v-213.9h-62.02v22.661c-15.902-17.494-37.77-25.844-64.009-25.844-60.432 0-106.95 42.936-106.95 110.13 0 67.188 46.516 110.13 106.95 110.13zm10.734-50.889c-31.01 0-54.863-22.264-54.863-59.238 0-36.973 23.855-59.238 54.863-59.238 30.614 0 54.468 22.264 54.468 59.238 0 36.973-23.855 59.238-54.468 59.238zm166.59 47.71h62.02v-100.98c0-40.949 22.661-59.636 56.852-59.636 4.771 0 8.7467 0.39756 13.915 0.79511v-57.251c-32.997 0-58.442 10.734-73.55 31.407v-28.228h-59.238zm267.97 3.1805c38.564 0 68.38-11.927 88.261-34.588l-32.997-35.781c-14.71 13.915-31.012 20.674-53.671 20.674-27.831 0-47.71-10.734-56.852-31.805l158.23-30.613c-0.3974-68.382-50.094-108.14-110.52-108.14-65.996 0-114.5 46.119-114.5 110.13 0 63.61 48.104 110.13 122.05 110.13zm-61.227-116.49c0.7955-36.178 22.663-56.852 53.671-56.852 25.443 0 44.529 14.71 50.49 36.577z" fill="#fff" stroke-linecap="round" stroke-width="89.453" aria-label="ddflare"/>
 <path d="m0.55456 266.22c9.5666-120.89 146.93-141.64 126.44-266.22 56.591 25.583 64.611 101.32 40.113 156.34-59.834 108.35-82.28 155.24-70.582 224.84 92.774-46.118 157.96-150.53 137.66-189.87-19.115 28.674-23.086 33.554-73.757 61.845 13.872-38.8 55.154-67.124 52.68-131.87 59.643 45.344 84.667 141.82 32.885 220.96-49.576 75.773-258.11 63.88-245.44-76.031z" fill="#fff" stroke-width=".79577"/>
</svg>
