<?xml version="1.0" encoding="UTF-8"?>
<svg width="500" height="500" version="1.1" viewBox="0 0 1250 1250" xmlns="http://www.w3.org/2000/svg">
 <rect width="1250" height="1250" fill="#228787"/>
 <g transform="matrix(1.1315 0 0 1.1315 -94.35 -147.27)" fill="#fff">
  <path d="m237.62 1120.3c18.195 0 32.6-5.8124 42.456-17.69v15.668h37.654v-187.51h-39.423v65.958c-10.108-11.12-24.008-16.426-40.687-16.426-38.413 0-67.98 27.293-67.98 70.001s29.567 70.001 67.98 70.001zm6.8232-32.348c-19.712 0-34.874-14.152-34.874-37.654s15.163-37.654 34.874-37.654c19.459 0 34.622 14.152 34.622 37.654s-15.163 37.654-34.622 37.654zm164.27 32.348c18.195 0 32.6-5.8124 42.456-17.69v15.668h37.654v-187.51h-39.423v65.958c-10.108-11.12-24.008-16.426-40.687-16.426-38.413 0-67.98 27.293-67.98 70.001s29.567 70.001 67.98 70.001zm6.8232-32.348c-19.712 0-34.874-14.152-34.874-37.654s15.163-37.654 34.874-37.654c19.459 0 34.622 14.152 34.622 37.654s-15.163 37.654-34.622 37.654zm105.89 30.326h39.423v-102.6h33.864v-30.325h-34.874v-5.8124c0-13.394 6.3178-19.712 17.943-19.712 6.0651 0 11.625 1.769 15.921 4.8015l10.361-28.557c-7.3286-5.0542-18.701-7.3286-30.073-7.3286-33.864 0-52.564 19.964-52.564 50.543zm140.51 2.0217c6.8232 0 13.646-1.0109 20.47-3.2853l-1.769-30.578c-2.2744 1.2635-6.8232 2.5271-11.12 2.5271-10.866 0-16.931-6.3178-16.931-17.943v-140.26h-39.423v142.53c0 30.326 18.195 47.005 48.773 47.005zm91.484 0c18.195 0 32.6-5.8124 42.456-17.69v15.668h37.654v-135.96h-39.423v14.405c-10.108-11.12-24.008-16.427-40.687-16.427-38.413 0-67.98 27.293-67.98 70.001s29.567 70.001 67.98 70.001zm6.8232-32.347c-19.712 0-34.874-14.152-34.874-37.654s15.163-37.654 34.874-37.654c19.459 0 34.622 14.152 34.622 37.654s-15.163 37.654-34.622 37.654zm105.89 30.326h39.423v-64.189c0-26.029 14.405-37.907 36.138-37.907 3.0326 0 5.5597 0.2527 8.8452 0.5054v-36.391c-20.975 0-37.149 6.8232-46.752 19.964v-17.943h-37.654zm170.33 2.0217c24.513 0 43.466-7.5814 56.102-21.986l-20.975-22.744c-9.3501 8.8452-19.712 13.141-34.116 13.141-17.69 0-30.326-6.8233-36.138-20.217l100.58-19.459c-0.2527-43.466-31.842-68.738-70.254-68.738-41.95 0-72.781 29.315-72.781 70.001 0 40.434 30.578 70.001 77.58 70.001zm-38.918-74.045c0.50545-22.997 14.405-36.138 34.116-36.138 16.173 0 28.304 9.3501 32.094 23.25z" stroke-linecap="round" stroke-width="56.86" aria-label="ddflare"/>
  <path d="m412.79 661.85c15.187-191.91 233.25-224.85 200.72-422.62 89.839 40.613 102.57 160.85 63.68 248.19-94.987 172-130.62 246.45-112.05 356.94 147.28-73.212 250.77-238.97 218.54-301.42-30.345 45.52-36.65 53.267-117.09 98.179 22.022-61.596 87.557-106.56 83.63-209.34 94.684 71.984 134.41 225.14 52.205 350.78-78.702 120.29-409.75 101.41-389.64-120.7z" stroke-width="1.2633"/>
 </g>
</svg>
