<?xml version="1.0" encoding="UTF-8"?>
<svg width="500" height="200" version="1.1" viewBox="0 0 1250 500" xmlns="http://www.w3.org/2000/svg">
 <rect width="1250" height="500" fill="#228787" stroke-width=".79812"/>
 <g transform="translate(-3.5853)" fill="#fff">
  <path d="m469.5 327.5c14.722 0 26.378-4.703 34.352-14.313v12.677h30.467v-151.72h-31.898v53.368c-8.1787-8.9975-19.426-13.291-32.921-13.291-31.081 0-55.004 22.084-55.004 56.64s23.923 56.64 55.004 56.64zm5.5208-26.174c-15.949 0-28.218-11.451-28.218-30.467s12.269-30.467 28.218-30.467c15.745 0 28.014 11.451 28.014 30.467s-12.269 30.467-28.014 30.467zm132.92 26.174c14.722 0 26.378-4.703 34.352-14.313v12.677h30.467v-151.72h-31.898v53.368c-8.1786-8.9975-19.426-13.291-32.921-13.291-31.081 0-55.004 22.084-55.004 56.64s23.924 56.64 55.004 56.64zm5.5208-26.174c-15.95 0-28.217-11.451-28.217-30.467s12.269-30.467 28.217-30.467c15.745 0 28.014 11.451 28.014 30.467s-12.269 30.467-28.014 30.467zm85.678 24.538h31.898v-83.016h27.4v-24.537h-28.217v-4.703c0-10.837 5.1119-15.95 14.518-15.95 4.9074 0 9.4061 1.4314 12.882 3.885l8.3834-23.106c-5.9297-4.0895-15.131-5.9298-24.333-5.9298-27.4 0-42.531 16.153-42.531 40.896zm113.69 1.6358c5.5208 0 11.041-0.81795 16.563-2.6582l-1.4313-24.741c-1.8403 1.0223-5.5208 2.0448-8.9975 2.0448-8.792 0-13.699-5.1119-13.699-14.518v-113.49h-31.898v115.32c0 24.538 14.722 38.033 39.464 38.033zm74.022 0c14.722 0 26.378-4.703 34.352-14.313v12.677h30.467v-110.01h-31.898v11.655c-8.1787-8.9975-19.426-13.292-32.921-13.292-31.081 0-55.004 22.083-55.004 56.64 0 34.556 23.924 56.64 55.004 56.64zm5.5207-26.173c-15.949 0-28.217-11.451-28.217-30.467s12.269-30.467 28.217-30.467c15.745 0 28.014 11.451 28.014 30.467s-12.269 30.467-28.014 30.467zm85.678 24.538h31.898v-51.937c0-21.061 11.655-30.672 29.24-30.672 2.4538 0 4.4986 0.20446 7.1569 0.40893v-29.445c-16.971 0-30.058 5.5208-37.828 16.153v-14.518h-30.467zm137.82 1.6358c19.834 0 35.169-6.1343 45.394-17.789l-16.971-18.403c-7.5655 7.1569-15.95 10.633-27.604 10.633-14.314 0-24.538-5.5209-29.24-16.358l81.382-15.745c-0.2044-35.17-25.764-55.618-56.844-55.618-33.943 0-58.889 23.72-58.889 56.64 0 32.716 24.741 56.64 62.772 56.64zm-31.49-59.912c0.4091-18.607 11.656-29.24 27.604-29.24 13.086 0 22.902 7.5654 25.968 18.812z" stroke-linecap="round" stroke-width="46.007" aria-label="ddflare"/>
  <path d="m88.906 303.33c9.5666-120.89 146.93-141.64 126.44-266.22 56.591 25.583 64.611 101.32 40.113 156.34-59.834 108.35-82.28 155.24-70.582 224.84 92.774-46.118 157.96-150.53 137.66-189.87-19.115 28.674-23.086 33.554-73.757 61.845 13.872-38.8 55.154-67.124 52.68-131.87 59.643 45.344 84.667 141.82 32.885 220.96-49.576 75.773-258.11 63.88-245.44-76.031z" stroke-width=".79577"/>
 </g>
</svg>
