<?xml version="1.0" encoding="UTF-8"?>
<svg width="500" height="500" version="1.1" viewBox="0 0 1250 1250" xmlns="http://www.w3.org/2000/svg">
 <path d="m1212.1 625a587.08 587.08 0 0 1-587.08 587.08 587.08 587.08 0 0 1-587.08-587.08 587.08 587.08 0 0 1 587.08-587.08 587.08 587.08 0 0 1 587.08 587.08z" fill="#fff" stroke="#fff" stroke-linecap="round" stroke-width="75.835"/>
 <g transform="matrix(1.1117 0 0 1.1117 -381.1 -156.42)" fill="#228787">
  <path d="m619.23 853.59c20.032-253.13 307.66-296.58 264.76-557.45 118.5 53.569 135.29 212.16 83.995 327.37-125.29 226.87-172.29 325.07-147.8 470.81 194.27-96.568 330.77-315.21 288.26-397.58-40.026 60.042-48.342 70.26-154.45 129.5 29.047-81.246 115.49-140.56 110.31-276.13 124.89 94.948 177.29 296.97 68.859 462.68-103.81 158.66-540.47 133.76-513.94-159.2z" fill="#228787"/>
 </g>
</svg>
