<?xml version="1.0" encoding="UTF-8"?>
<svg width="469.66" height="469.66" version="1.1" viewBox="0 0 1174.2 1174.2" xmlns="http://www.w3.org/2000/svg">
 <path d="m587.08 0a587.08 587.08 0 0 0-587.08 587.08 587.08 587.08 0 0 0 587.08 587.08 587.08 587.08 0 0 0 587.08-587.08 587.08 587.08 0 0 0-587.08-587.08zm-23.389 134.88c131.74 59.553 150.4 235.86 93.379 363.94-139.28 252.21-191.54 361.38-164.31 523.4 215.97-107.35 367.72-350.42 320.46-441.99-44.497 66.749-53.739 78.108-171.7 143.96 32.292-90.321 128.39-156.26 122.63-306.97 138.84 105.55 197.09 330.14 76.548 514.36-115.41 176.38-600.84 148.7-571.35-176.98h0.01c22.27-281.4 342.02-329.71 294.33-619.72z" fill="#fff"/>
</svg>
